<svg width="507" height="206" viewBox="0 0 507 206" fill="none" xmlns="http://www.w3.org/2000/svg">
<rect x="1" y="28" width="150" height="150" rx="75" fill="#8D75F5"/>
<path d="M112.555 109.715C112.555 115.022 111.493 119.588 109.482 122.922C106.901 127.205 102.89 129.471 97.8823 129.471C88.3245 129.471 81.8991 117.48 75.0987 104.787C70.1575 95.5662 64.0251 84.0924 58.9831 84.0924C56.5535 84.0924 53.5756 87.0452 51.2121 91.7973C48.5087 97.3876 47.0733 103.506 47.0083 109.715C47.0083 113.591 47.7142 116.894 48.9936 119.018C50.1817 120.991 51.8109 121.908 54.1176 121.908C58.4506 121.908 63.7699 112.769 65.5188 109.778C66.0241 108.912 66.8529 108.281 67.823 108.026C68.7931 107.77 69.8249 107.91 70.6916 108.415C71.5583 108.921 72.1888 109.749 72.4444 110.72C72.7 111.69 72.5598 112.722 72.0546 113.588C69.2468 118.403 66.8455 121.782 64.4915 124.233C61.1102 127.756 57.7226 129.471 54.1176 129.471C49.1102 129.471 45.0987 127.205 42.5178 122.922C40.5073 119.588 39.4453 115.022 39.4453 109.715C39.4453 95.8592 46.876 76.5294 58.9831 76.5294C68.5409 76.5294 74.9663 88.52 81.7667 101.213C86.7142 110.434 92.8497 121.908 97.8823 121.908C100.189 121.908 101.818 120.991 103.006 119.018C104.286 116.894 104.992 113.591 104.992 109.715C104.928 103.506 103.493 97.3879 100.791 91.7973C98.4275 87.0452 95.4495 84.0924 93.0167 84.0924C91.2142 84.0924 89.043 85.6681 86.5598 88.7658C85.933 89.5489 85.0207 90.0509 84.0238 90.1614C83.0268 90.2719 82.0267 89.9819 81.2436 89.355C80.4605 88.7282 79.9585 87.816 79.848 86.819C79.7375 85.822 80.0275 84.822 80.6543 84.0389C84.7037 78.9874 88.7468 76.5294 93.0167 76.5294C98.5787 76.5294 103.731 80.7553 107.56 88.4286C110.771 95.0699 112.477 102.339 112.555 109.715Z" fill="white"/>
<path d="M239.122 145.528V65.1978H251.516V145.528H239.122ZM186.678 145.528V65.1978H199.072V145.528H186.678ZM192.072 111.445V99.5101H244.63V111.445H192.072Z" fill="#16151C"/>
<path d="M273.978 145.528V65.1978H308.176C312.766 65.1978 316.974 66.3454 320.799 68.6405C324.701 70.8592 327.799 73.9193 330.094 77.8211C332.389 81.6463 333.537 85.9688 333.537 90.7886C333.537 95.1493 332.389 99.2041 330.094 102.953C327.799 106.702 324.739 109.723 320.914 112.019C317.089 114.237 312.843 115.347 308.176 115.347H286.372V145.528H273.978ZM321.717 145.528L301.29 109.264L314.028 106.396L336.75 145.642L321.717 145.528ZM286.372 103.412H309.323C311.542 103.412 313.531 102.876 315.291 101.805C317.05 100.658 318.427 99.1276 319.422 97.215C320.417 95.2258 320.914 93.0455 320.914 90.6738C320.914 87.9962 320.263 85.6628 318.963 83.6737C317.739 81.608 315.979 80.0014 313.684 78.8539C311.465 77.7063 308.941 77.1325 306.11 77.1325H286.372V103.412Z" fill="#16151C"/>
<path d="M353.77 145.528V65.1978H365.934L395.197 112.822L389.345 112.707L418.952 65.1978H430.428V145.528H418.034V112.592C418.034 105.707 418.187 99.5101 418.493 94.0018C418.875 88.4935 419.487 83.0234 420.329 77.5916L421.936 81.8376L395.656 122.461H388.082L362.606 82.2966L363.869 77.5916C364.71 82.7174 365.284 87.9962 365.59 93.428C365.973 98.7833 366.164 105.171 366.164 112.592V145.528H353.77Z" fill="#16151C"/>
<path d="M477.737 146.675C473.376 146.675 469.321 146.101 465.573 144.954C461.901 143.806 458.534 142.085 455.474 139.79C452.49 137.418 449.813 134.511 447.441 131.068L455.933 121.314C459.682 126.669 463.278 130.38 466.72 132.445C470.163 134.511 474.256 135.544 478.999 135.544C481.906 135.544 484.546 135.085 486.917 134.167C489.289 133.249 491.163 131.986 492.541 130.38C493.918 128.773 494.606 126.937 494.606 124.871C494.606 123.494 494.377 122.194 493.918 120.97C493.459 119.746 492.732 118.636 491.737 117.642C490.819 116.647 489.595 115.729 488.065 114.887C486.611 114.046 484.89 113.319 482.901 112.707C480.912 112.019 478.617 111.445 476.016 110.986C471.884 110.144 468.289 109.035 465.228 107.658C462.168 106.281 459.605 104.559 457.54 102.494C455.474 100.428 453.944 98.0948 452.949 95.4936C451.955 92.816 451.458 89.8323 451.458 86.5426C451.458 83.3294 452.146 80.3457 453.523 77.5916C454.977 74.8374 456.928 72.4658 459.376 70.4766C461.9 68.411 464.846 66.8427 468.212 65.7716C471.578 64.624 475.212 64.0503 479.114 64.0503C483.245 64.0503 487.032 64.5858 490.475 65.6569C493.918 66.7279 496.978 68.3345 499.655 70.4766C502.333 72.5423 504.552 75.1052 506.311 78.1653L497.59 86.7721C496.06 84.2475 494.338 82.1436 492.426 80.4605C490.513 78.7009 488.409 77.4003 486.114 76.5587C483.819 75.6407 481.371 75.1817 478.77 75.1817C475.786 75.1817 473.185 75.6407 470.966 76.5587C468.748 77.4768 466.988 78.7774 465.687 80.4605C464.463 82.0671 463.851 83.9797 463.851 86.1983C463.851 87.8049 464.157 89.2967 464.769 90.6738C465.381 91.9744 466.299 93.1602 467.524 94.2313C468.824 95.2258 470.546 96.1439 472.688 96.9855C474.83 97.7505 477.393 98.439 480.376 99.0511C484.584 99.9691 488.333 101.155 491.622 102.609C494.912 103.986 497.705 105.63 500 107.543C502.295 109.456 504.016 111.598 505.164 113.969C506.388 116.341 507 118.904 507 121.658C507 126.784 505.814 131.221 503.442 134.97C501.071 138.719 497.705 141.626 493.344 143.691C488.983 145.681 483.781 146.675 477.737 146.675Z" fill="#16151C"/>
</svg>
